PathFileType	4	(X/Y/Z)	/Users/itak/Documents/Research/Walk-IL/dataset/trc/00453_00167.trc
DataRate	CameraRate	NumFrames	NumMarkers	Units	OrigDataRate	OrigDataStartFrame	OrigNumFrames
100.000000	100.000000	4	53	mm	100.000000	67	536
Frame#	Time	RPSI			LPSI			L3			STRN			T10			C7			CLAV			RBAK			LBAK			LSHO			LUPA			LAEL			LAOL			LWTS			LWPS			LFRA			LIFD			LHPS			LHTS			RSHO			RUPA			RAEL			RAOL			RWTS			RWPS			RFRA			RIFD			RHTS			RHPS			RBHD			LFHD			RFHD			LBHD			LHIP			RHIP			RASI			LASI			LKNE			LTHI			LANK			LTIP			LTOE			LMT1			LMT5			LHEE			RKNE			RTHI			RANK			RTIP			RTOE			RMT1			RMT5			RHEE			
		X1	Y1	Z1	X2	Y2	Z2	X3	Y3	Z3	X4	Y4	Z4	X5	Y5	Z5	X6	Y6	Z6	X7	Y7	Z7	X8	Y8	Z8	X9	Y9	Z9	X10	Y10	Z10	X11	Y11	Z11	X12	Y12	Z12	X13	Y13	Z13	X14	Y14	Z14	X15	Y15	Z15	X16	Y16	Z16	X17	Y17	Z17	X18	Y18	Z18	X19	Y19	Z19	X20	Y20	Z20	X21	Y21	Z21	X22	Y22	Z22	X23	Y23	Z23	X24	Y24	Z24	X25	Y25	Z25	X26	Y26	Z26	X27	Y27	Z27	X28	Y28	Z28	X29	Y29	Z29	X30	Y30	Z30	X31	Y31	Z31	X32	Y32	Z32	X33	Y33	Z33	X34	Y34	Z34	X35	Y35	Z35	X36	Y36	Z36	X37	Y37	Z37	X38	Y38	Z38	X39	Y39	Z39	X40	Y40	Z40	X41	Y41	Z41	X42	Y42	Z42	X43	Y43	Z43	X44	Y44	Z44	X45	Y45	Z45	X46	Y46	Z46	X47	Y47	Z47	X48	Y48	Z48	X49	Y49	Z49	X50	Y50	Z50	X51	Y51	Z51	X52	Y52	Z52	X53	Y53	Z53	

68	0.67	-2003.17529296875	969.3450927734375	-592.12890625	-1927.845825195312	971.7103271484375	-712.6812744140625	-1955.967529296875	1064.689208984375	-629.151611328125	-1708.9931640625	1251.67333984375	-504.1378784179688	-1964.759887695312	1189.090087890625	-638.3316650390625	-1905.853393554688	1455.405639648438	-590.6500854492188	-1736.246215820312	1366.8466796875	-523.2227783203125	-2008.948852539062	1337.461303710938	-540.4216918945312	-1893.95703125	1409.45849609375	-694.0132446289062	-1765.670654296875	1430.463012695312	-721.6276245117188	-1734.473876953125	1315.62158203125	-817.1179809570312	-1697.168090820312	1104.642822265625	-853.75244140625	-1794.9775390625	1084.603881835938	-828.9819946289062	-1632.622436523438	908.531494140625	-786.800048828125	-1650.837280273438	890.6563110351562	-857.6647338867188	-1668.911254882812	1018.8564453125	-856.3561401367188	-1607.346801757812	743.4915771484375	-784.0676879882812	-1635.6767578125	809.9461059570312	-852.7930297851562	-1601.976318359375	824.3031616210938	-788.24951171875	-1920.70263671875	1421.350463867188	-417.2518005371094	-1973.501953125	1359.096435546875	-361.3061218261719	-2000.866455078125	1072.931274414062	-313.0436706542969	-2029.634765625	1056.411743164062	-372.4256286621094	-1887.819091796875	874.3209228515625	-307.8140563964844	-1972.212768554688	856.34326171875	-286.9779357910156	-2001.4619140625	1014.934631347656	-303.10693359375	-1882.460327148438	716.0584106445312	-300.779541015625	-1875.823364257812	775.49609375	-289.2769775390625	-1951.917358398438	769.5089721679688	-280.7582702636719	-1861.839965820312	1650.706909179688	-474.4951782226562	-1671.061889648438	1660.95263671875	-556.5364990234375	-1728.638305664062	1662.720336914062	-438.6068725585938	-1798.949829101562	1653.615478515625	-640.6748046875	-1752.023681640625	866.2872924804688	-743.5240478515625	-1978.849487304688	861.4352416992188	-416.66845703125	-1856.015991210938	900.51513671875	-412.3832702636719	-1707.9775390625	900.6914672851562	-623.9798583984375	-1737.642333984375	443.0417785644531	-707.3944091796875	-1712.41357421875	596.7872314453125	-714.881103515625	-1846.663452148438	35.51288223266602	-775.8499145507812	-1760.052001953125	291.4991455078125	-738.2711791992188	-1687.114013671875	46.32847595214844	-598.9872436523438	-1763.560913085938	56.70280075073242	-612.2350463867188	-1707.52880859375	45.05636596679688	-713.37109375	-1919.947631835938	39.43967437744141	-755.95556640625	-1931.392456054688	468.81201171875	-419.724853515625	-1948.114135742188	727.2958984375	-382.7033386230469	-2004.251831054688	41.82191467285156	-465.3800048828125	-1950.267456054688	323.9429016113281	-415.6455383300781	-1793.035522460938	49.05829620361328	-400.0463256835938	-1830.935302734375	56.51424026489258	-460.0777893066406	-1899.855590820312	47.60842514038086	-376.3613891601562	-2036.314575195312	36.11507415771484	-539.8356323242188	
69	0.68	-2002.96044921875	969.4761962890625	-591.7861328125	-1927.671997070312	971.8925170898438	-712.4009399414062	-1955.6640625	1064.785400390625	-628.7720947265625	-1708.525512695312	1251.6083984375	-503.7265014648438	-1964.420166015625	1189.214721679688	-637.8756713867188	-1905.311279296875	1455.5244140625	-590.17578125	-1735.708984375	1366.790161132812	-522.8255615234375	-2008.4765625	1337.645141601562	-539.9379272460938	-1893.4462890625	1409.527465820312	-693.5426635742188	-1765.1357421875	1430.456176757812	-721.1595458984375	-1733.928344726562	1315.619262695312	-816.6514892578125	-1696.614379882812	1104.636840820312	-853.2849731445312	-1794.255737304688	1084.430786132812	-828.533935546875	-1632.009155273438	908.63330078125	-786.1602172851562	-1650.189086914062	890.7357177734375	-857.0333862304688	-1668.319946289062	1018.884094238281	-855.8126220703125	-1606.57958984375	743.6041870117188	-783.2293701171875	-1634.921630859375	810.0101928710938	-852.0579223632812	-1601.322998046875	824.3796997070312	-787.5078125	-1920.086059570312	1421.408569335938	-416.7073669433594	-1972.87353515625	1359.16357421875	-360.75927734375	-2000.216918945312	1072.900390625	-312.7827758789062	-2028.998168945312	1056.420043945312	-372.1688842773438	-1887.062255859375	874.3734130859375	-307.7605895996094	-1971.437377929688	856.2574462890625	-286.9181213378906	-2000.776245117188	1014.87109375	-302.8812561035156	-1881.531616210938	716.0423583984375	-300.8321228027344	-1875.032104492188	775.487548828125	-289.3353271484375	-1951.112426757812	769.4762573242188	-280.6969909667969	-1861.041381835938	1650.762451171875	-473.9835510253906	-1670.274047851562	1660.731323242188	-556.0096435546875	-1727.807983398438	1662.524169921875	-438.0905151367188	-1798.173095703125	1653.68798828125	-640.1589965820312	-1751.988891601562	866.3955688476562	-743.4146728515625	-1978.664916992188	861.4646606445312	-416.4541320800781	-1855.82421875	900.4706420898438	-412.04638671875	-1707.611572265625	900.7453002929688	-623.7562255859375	-1737.7919921875	443.0961608886719	-707.4630126953125	-1712.429565429688	596.837158203125	-714.8282470703125	-1846.663208007812	35.52333450317383	-775.8037109375	-1760.126220703125	291.5691833496094	-738.321044921875	-1687.09375	46.2535514831543	-599.0076293945312	-1763.524658203125	56.74526596069336	-612.2255249023438	-1707.517944335938	45.05514907836914	-713.3865966796875	-1919.935791015625	39.44267272949219	-755.9479370117188	-1931.411010742188	468.8162231445312	-419.674560546875	-1948.012084960938	727.2821044921875	-382.5006713867188	-2004.2548828125	41.81881713867188	-465.3802185058594	-1950.268188476562	323.9467468261719	-415.5552673339844	-1793.061401367188	49.04773712158203	-400.0553283691406	-1830.933837890625	56.51824188232422	-460.0755615234375	-1899.8662109375	47.60589599609375	-376.3569641113281	-2036.3095703125	36.10847854614258	-539.8300170898438	
70	0.6900000000000001	-2002.754638671875	969.5890502929688	-591.444091796875	-1927.495849609375	972.055908203125	-712.1290893554688	-1955.366821289062	1064.8681640625	-628.400390625	-1708.097778320312	1251.54248046875	-503.3219604492188	-1964.087524414062	1189.320068359375	-637.4285278320312	-1904.78369140625	1455.628784179688	-589.7020874023438	-1735.1865234375	1366.730346679688	-522.434326171875	-2008.019653320312	1337.82373046875	-539.4734497070312	-1892.957275390625	1409.583374023438	-693.076904296875	-1764.614501953125	1430.432861328125	-720.7064819335938	-1733.411254882812	1315.607666015625	-816.1983642578125	-1696.075073242188	1104.620483398438	-852.830810546875	-1793.583374023438	1084.273803710938	-828.1132202148438	-1631.373779296875	908.75390625	-785.5399169921875	-1649.536865234375	890.8106079101562	-856.4118041992188	-1667.7451171875	1018.913940429688	-855.2884521484375	-1605.788208007812	743.7229614257812	-782.4149169921875	-1634.15625	810.07568359375	-851.3429565429688	-1600.653930664062	824.4536743164062	-786.77099609375	-1919.486572265625	1421.460327148438	-416.173583984375	-1972.26708984375	1359.224487304688	-360.2155456542969	-1999.568359375	1072.864013671875	-312.5289611816406	-2028.368286132812	1056.422485351562	-371.9159851074219	-1886.30810546875	874.42041015625	-307.7096557617188	-1970.653686523438	856.1709594726562	-286.8733825683594	-2000.090209960938	1014.801147460938	-302.6748962402344	-1880.685546875	716.0311889648438	-300.881591796875	-1874.248779296875	775.46875	-289.4200134277344	-1950.2919921875	769.4447631835938	-280.6581726074219	-1860.262451171875	1650.814575195312	-473.4898376464844	-1669.48291015625	1660.51513671875	-555.4907836914062	-1727.0078125	1662.332763671875	-437.5907897949219	-1797.412963867188	1653.740478515625	-639.6625366210938	-1751.954345703125	866.4976806640625	-743.3019409179688	-1978.504760742188	861.4862670898438	-416.2469482421875	-1855.630615234375	900.4141235351562	-411.7054748535156	-1707.29248046875	900.7967529296875	-623.5451049804688	-1737.939819335938	443.1322937011719	-707.5170288085938	-1712.447021484375	596.8816528320312	-714.7674560546875	-1846.674072265625	35.53266143798828	-775.76123046875	-1760.201538085938	291.62890625	-738.3572998046875	-1687.10107421875	46.1815071105957	-599.0286254882812	-1763.496948242188	56.77642059326172	-612.2138061523438	-1707.5078125	45.05768966674805	-713.39794921875	-1919.929443359375	39.43772506713867	-755.9382934570312	-1931.428588867188	468.8165588378906	-419.625244140625	-1947.922729492188	727.2647094726562	-382.31103515625	-2004.261352539062	41.81546783447266	-465.3807678222656	-1950.275146484375	323.9449157714844	-415.47509765625	-1793.098510742188	49.03589630126953	-400.0678100585938	-1830.935424804688	56.52026748657227	-460.0730590820312	-1899.875610351562	47.60567474365234	-376.3544311523438	-2036.305053710938	36.09741592407227	-539.8278198242188	
71	0.7000000000000001	-2002.5546875	969.6829223632812	-591.104248046875	-1927.312622070312	972.19580078125	-711.863037109375	-1955.076049804688	1064.939819335938	-628.0376586914062	-1707.716552734375	1251.473022460938	-502.9286499023438	-1963.76318359375	1189.408325195312	-636.993408203125	-1904.27001953125	1455.717529296875	-589.229248046875	-1734.680786132812	1366.66748046875	-522.0452270507812	-2007.577880859375	1337.99365234375	-539.0281982421875	-1892.487426757812	1409.626098632812	-692.6185302734375	-1764.107543945312	1430.39453125	-720.2681274414062	-1732.923217773438	1315.586303710938	-815.7586059570312	-1695.553100585938	1104.597412109375	-852.3895263671875	-1792.973266601562	1084.146484375	-827.7234497070312	-1630.723266601562	908.8904418945312	-784.9367065429688	-1648.881958007812	890.8785400390625	-855.7993774414062	-1667.18603515625	1018.944396972656	-854.7833862304688	-1604.983154296875	743.8463134765625	-781.6307983398438	-1633.384399414062	810.1396484375	-850.646728515625	-1599.969848632812	824.52490234375	-786.0386352539062	-1918.907958984375	1421.50537109375	-415.653564453125	-1971.68701171875	1359.277465820312	-359.6794738769531	-1998.924072265625	1072.820190429688	-312.2845458984375	-2027.746948242188	1056.41748046875	-371.6664123535156	-1885.55712890625	874.458740234375	-307.657958984375	-1969.864013671875	856.0873413085938	-286.8406372070312	-1999.406005859375	1014.725036621094	-302.4878845214844	-1879.891479492188	716.026123046875	-300.9375915527344	-1873.465209960938	775.4435424804688	-289.5184631347656	-1949.45654296875	769.4137573242188	-280.6457824707031	-1859.502319335938	1650.860961914062	-473.0149841308594	-1668.697998046875	1660.300659179688	-554.988037109375	-1726.239501953125	1662.1474609375	-437.1089172363281	-1796.671875	1653.770263671875	-639.186279296875	-1751.908813476562	866.5942993164062	-743.1796264648438	-1978.362060546875	861.5010375976562	-416.0418701171875	-1855.431518554688	900.3465576171875	-411.369384765625	-1707.029296875	900.8412475585938	-623.3446655273438	-1738.079711914062	443.1527709960938	-707.5532836914062	-1712.461303710938	596.9197998046875	-714.6956787109375	-1846.694213867188	35.54152679443359	-775.7245483398438	-1760.271484375	291.6809997558594	-738.3773803710938	-1687.131225585938	46.11642074584961	-599.0476684570312	-1763.47705078125	56.79753875732422	-612.2001953125	-1707.497802734375	45.06289291381836	-713.4046630859375	-1919.927368164062	39.42749786376953	-755.9267578125	-1931.441650390625	468.8122253417969	-419.5748596191406	-1947.842163085938	727.2460327148438	-382.1343078613281	-2004.27001953125	41.81164932250977	-465.3816833496094	-1950.284301757812	323.9367065429688	-415.4051818847656	-1793.142822265625	49.02328872680664	-400.0833435058594	-1830.938842773438	56.52063369750977	-460.0707092285156	-1899.883056640625	47.60730361938477	-376.3532104492188	-2036.301879882812	36.08425521850586	-539.8284912109375	
